<?xml version="1.0" standalone="no"?><!--
  - Copyright (c) 2025 Leyramu Group. All rights reserved.
  - Licensed under the Apache License, Version 2.0 (the "License");
  - you may not use this file except in compliance with the License.
  - You may obtain a copy of the License at
  -
  -      http://www.apache.org/licenses/LICENSE-2.0
  -
  - Unless required by applicable law or agreed to in writing, software
  - distributed under the License is distributed on an "AS IS" BASIS,
  - WITHOUT WARRANTIES OR CONDITIONS OF ANY KIND, either express or implied.
  - See the License for the specific language governing permissions and
  - limitations under the License.
  -
  - This project (Lersosa), including its source code, documentation, and any associated materials, is the intellectual property of Leyramu. No part of this software may be reproduced, distributed, or transmitted in any form or by any means, including photocopying, recording, or other electronic or mechanical methods, without the prior written permission of the copyright owner, Miraitowa_zcx, except in the case of brief quotations embodied in critical reviews and certain other noncommercial uses permitted by copyright law.
  -
  - For inquiries related to licensing or usage outside the scope of this notice, please contact the copyright holder at 2038322151@qq.com.
  -
  - The author disclaims all warranties, express or implied, including but not limited to the warranties of merchantability and fitness for a particular purpose. Under no circumstances shall the author be liable for any special, incidental, indirect, or consequential damages arising from the use of this software.
  -
  - By using this project, users acknowledge and agree to abide by these terms and conditions.
  -->

<!DOCTYPE svg PUBLIC "-//W3C//DTD SVG 1.1//EN" "http://www.w3.org/Graphics/SVG/1.1/DTD/svg11.dtd"><svg t="1742121219501" class="icon" viewBox="0 0 1084 1024" version="1.1" xmlns="http://www.w3.org/2000/svg" p-id="17278" xmlns:xlink="http://www.w3.org/1999/xlink" width="211.71875" height="200"><path d="M974.185412 965.752471H567.838118c-57.464471 0-101.616941-57.404235-101.616942-136.914824V192.752941c0-75.113412 44.152471-136.914824 101.616942-136.914823h406.347294c57.464471 0 101.616941 57.404235 101.616941 136.914823v640.481883c0 75.113412-44.152471 132.517647-101.616941 132.517647zM567.838118 144.143059c-4.457412 4.457412-13.251765 22.106353-13.251765 48.609882v640.481883c0 26.503529 13.251765 44.212706 17.648941 48.609882h401.950118c4.457412 0 13.251765-17.648941 13.251764-48.609882V192.752941c0-26.503529-13.251765-44.152471-17.648941-48.609882H567.838118z" fill="#8a8a8a" p-id="17279"></path><path d="M885.880471 356.171294h-229.737412c-26.503529 0-44.152471-17.648941-44.152471-44.15247s17.648941-44.152471 44.152471-44.152471h229.737412c26.503529 0 44.152471 17.648941 44.15247 44.152471s-17.648941 44.152471-44.15247 44.15247z m-375.506824 198.776471H280.696471c-26.503529 0-44.152471-17.648941-44.152471-44.152471s17.648941-44.152471 44.152471-44.15247h229.677176c26.503529 0 44.212706 17.648941 44.212706 44.15247s-17.709176 44.152471-44.212706 44.152471z m-132.517647-322.43953H263.047529c-26.503529 0-44.212706-17.648941-44.212705-44.15247s17.709176-44.212706 44.212705-44.212706h114.808471c26.503529 0 44.212706 17.709176 44.212706 44.212706s-17.709176 44.152471-44.212706 44.15247z m0 644.939294H263.047529c-26.503529 0-44.212706-17.709176-44.212705-44.212705s17.709176-44.152471 44.212705-44.152471h114.808471c26.503529 0 44.212706 17.648941 44.212706 44.152471s-17.709176 44.212706-44.212706 44.212705z" fill="#8a8a8a" p-id="17280"></path><path d="M377.856 877.447529c-26.503529 0-44.152471-17.709176-44.152471-44.212705V188.355765c0-26.503529 17.648941-44.212706 44.152471-44.212706s44.212706 17.709176 44.212706 44.212706v644.879059c0 26.503529-17.709176 44.212706-44.212706 44.212705z m508.024471-322.499764h-229.737412c-26.503529 0-44.152471-17.648941-44.152471-44.152471s17.648941-44.152471 44.152471-44.15247h229.737412c26.503529 0 44.152471 17.648941 44.15247 44.15247s-17.648941 44.152471-44.15247 44.152471z m0 198.77647h-229.737412c-26.503529 0-44.152471-17.648941-44.152471-44.15247s17.648941-44.152471 44.152471-44.152471h229.737412c26.503529 0 44.152471 17.648941 44.15247 44.152471s-17.648941 44.152471-44.15247 44.15247zM214.437647 320.873412H77.522824C42.164706 320.873412 15.661176 289.912471 15.661176 254.614588V117.639529C15.661176 82.341647 42.164706 55.838118 77.522824 55.838118H214.437647c35.358118 0 66.258824 26.503529 66.258824 61.801411v136.975059c0 35.297882-30.900706 66.258824-66.258824 66.258824zM104.026353 232.508235h88.304941V144.143059H104.026353V232.508235z m110.411294 410.804706H77.522824C42.164706 643.312941 15.661176 612.412235 15.661176 581.451294V444.536471c0-35.358118 26.503529-66.258824 61.861648-66.258824H214.437647c35.358118 0 66.258824 30.900706 66.258824 61.861647V577.054118c0 35.358118-30.900706 66.258824-66.258824 66.258823zM104.026353 554.947765h88.304941V466.642824H104.026353v88.304941z m110.411294 410.804706H77.522824c-35.358118 0-61.861647-26.503529-61.861648-61.801412v-136.975059c0-35.297882 26.503529-61.801412 61.861648-61.801412H214.437647c35.358118-4.457412 66.258824 26.503529 66.258824 61.801412v136.975059c0 35.297882-30.900706 61.801412-66.258824 61.801412z m-110.411294-88.304942h88.304941V789.082353H104.026353v88.365176z" fill="#8a8a8a" p-id="17281"></path></svg>
