<?xml version="1.0" standalone="no"?><!--
  - Copyright (c) 2025 Leyramu Group. All rights reserved.
  - Licensed under the Apache License, Version 2.0 (the "License");
  - you may not use this file except in compliance with the License.
  - You may obtain a copy of the License at
  -
  -      http://www.apache.org/licenses/LICENSE-2.0
  -
  - Unless required by applicable law or agreed to in writing, software
  - distributed under the License is distributed on an "AS IS" BASIS,
  - WITHOUT WARRANTIES OR CONDITIONS OF ANY KIND, either express or implied.
  - See the License for the specific language governing permissions and
  - limitations under the License.
  -
  - This project (Lersosa), including its source code, documentation, and any associated materials, is the intellectual property of Leyramu. No part of this software may be reproduced, distributed, or transmitted in any form or by any means, including photocopying, recording, or other electronic or mechanical methods, without the prior written permission of the copyright owner, Miraitowa_zcx, except in the case of brief quotations embodied in critical reviews and certain other noncommercial uses permitted by copyright law.
  -
  - For inquiries related to licensing or usage outside the scope of this notice, please contact the copyright holder at 2038322151@qq.com.
  -
  - The author disclaims all warranties, express or implied, including but not limited to the warranties of merchantability and fitness for a particular purpose. Under no circumstances shall the author be liable for any special, incidental, indirect, or consequential damages arising from the use of this software.
  -
  - By using this project, users acknowledge and agree to abide by these terms and conditions.
  -->

<!DOCTYPE svg PUBLIC "-//W3C//DTD SVG 1.1//EN" "http://www.w3.org/Graphics/SVG/1.1/DTD/svg11.dtd"><svg t="1742121034783" class="icon" viewBox="0 0 1024 1024" version="1.1" xmlns="http://www.w3.org/2000/svg" p-id="12173" xmlns:xlink="http://www.w3.org/1999/xlink" width="200" height="200"><path d="M384 42.666667a85.333333 85.333333 0 0 1 85.333333 85.333333v170.666667H384V128H128v768h256v-170.666667h85.333333v170.666667a85.333333 85.333333 0 0 1-85.333333 85.333333H128a85.333333 85.333333 0 0 1-85.333333-85.333333V128a85.333333 85.333333 0 0 1 85.333333-85.333333h256z m512 0a85.333333 85.333333 0 0 1 85.333333 85.333333v768a85.333333 85.333333 0 0 1-85.333333 85.333333h-256a85.333333 85.333333 0 0 1-85.333333-85.333333v-170.666667h85.333333v170.666667h256V128h-256v170.666667h-85.333333V128a85.333333 85.333333 0 0 1 85.333333-85.333333h256z" fill="#8a8a8a" p-id="12174"></path><path d="M426.666667 298.666667m-42.666667 0a42.666667 42.666667 0 1 0 85.333333 0 42.666667 42.666667 0 1 0-85.333333 0Z" fill="#8a8a8a" p-id="12175"></path><path d="M426.666667 725.333333m-42.666667 0a42.666667 42.666667 0 1 0 85.333333 0 42.666667 42.666667 0 1 0-85.333333 0Z" fill="#8a8a8a" p-id="12176"></path><path d="M597.333333 298.666667m-42.666666 0a42.666667 42.666667 0 1 0 85.333333 0 42.666667 42.666667 0 1 0-85.333333 0Z" fill="#8a8a8a" p-id="12177"></path><path d="M597.333333 725.333333m-42.666666 0a42.666667 42.666667 0 1 0 85.333333 0 42.666667 42.666667 0 1 0-85.333333 0Z" fill="#8a8a8a" p-id="12178"></path><path d="M213.333333 469.333333m42.666667 0l512 0q42.666667 0 42.666667 42.666667l0 0q0 42.666667-42.666667 42.666667l-512 0q-42.666667 0-42.666667-42.666667l0 0q0-42.666667 42.666667-42.666667Z" fill="#8a8a8a" p-id="12179"></path></svg>
