<?xml version="1.0" standalone="no"?><!--
  - Copyright (c) 2025 Leyramu Group. All rights reserved.
  - Licensed under the Apache License, Version 2.0 (the "License");
  - you may not use this file except in compliance with the License.
  - You may obtain a copy of the License at
  -
  -      http://www.apache.org/licenses/LICENSE-2.0
  -
  - Unless required by applicable law or agreed to in writing, software
  - distributed under the License is distributed on an "AS IS" BASIS,
  - WITHOUT WARRANTIES OR CONDITIONS OF ANY KIND, either express or implied.
  - See the License for the specific language governing permissions and
  - limitations under the License.
  -
  - This project (Lersosa), including its source code, documentation, and any associated materials, is the intellectual property of Leyramu. No part of this software may be reproduced, distributed, or transmitted in any form or by any means, including photocopying, recording, or other electronic or mechanical methods, without the prior written permission of the copyright owner, Miraitowa_zcx, except in the case of brief quotations embodied in critical reviews and certain other noncommercial uses permitted by copyright law.
  -
  - For inquiries related to licensing or usage outside the scope of this notice, please contact the copyright holder at 2038322151@qq.com.
  -
  - The author disclaims all warranties, express or implied, including but not limited to the warranties of merchantability and fitness for a particular purpose. Under no circumstances shall the author be liable for any special, incidental, indirect, or consequential damages arising from the use of this software.
  -
  - By using this project, users acknowledge and agree to abide by these terms and conditions.
  -->

<!DOCTYPE svg PUBLIC "-//W3C//DTD SVG 1.1//EN" "http://www.w3.org/Graphics/SVG/1.1/DTD/svg11.dtd"><svg t="1742120857613" class="icon" viewBox="0 0 1024 1024" version="1.1" xmlns="http://www.w3.org/2000/svg" p-id="4265" xmlns:xlink="http://www.w3.org/1999/xlink" width="200" height="200"><path d="M919.264 905.984l-138.912-138.912C851.808 692.32 896 591.328 896 480c0-229.376-186.624-416-416-416S64 250.624 64 480s186.624 416 416 416c95.008 0 182.432-32.384 252.544-86.208l141.44 141.44a31.904 31.904 0 0 0 45.248 0 32 32 0 0 0 0.032-45.248zM128 480C128 285.92 285.92 128 480 128s352 157.92 352 352-157.92 352-352 352S128 674.08 128 480z" p-id="4266" fill="#8a8a8a"></path><path d="M625.792 448H512v-112a32 32 0 0 0-64 0V448h-112a32 32 0 0 0 0 64H448v112a32 32 0 1 0 64 0V512h113.792a32 32 0 1 0 0-64z" p-id="4267" fill="#8a8a8a"></path></svg>
